<?xml version="1.0" encoding="UTF-8"?>
<svg width="200px" height="200px" viewBox="0 0 200 200" version="1.1" xmlns="http://www.w3.org/2000/svg" xmlns:xlink="http://www.w3.org/1999/xlink">
    <!-- Generator: Sketch 61.2 (89653) - https://sketch.com -->
    <title>touch-id-icon</title>
    <desc>Created with Sketch.</desc>
    <g id="Page-1" stroke="none" stroke-width="1" fill="none" fill-rule="evenodd">
        <g id="ApplePay" transform="translate(-15.000000, -431.000000)" fill="#FD5274">
            <g transform="translate(0.000000, 198.000000)" id="touch-id-icon">
                <path d="M140.595545,367.378023 C142.210689,367.558163 143.369826,368.98631 143.185953,370.567935 C140.647765,392.374916 132.580873,413.529791 119.856837,431.745508 C119.287565,432.5619 118.365256,433 117.426766,433 C116.853817,433 116.275719,432.837154 115.768229,432.49633 C114.426689,431.597793 114.083949,429.804323 115.001844,428.490745 C127.185293,411.046746 134.910181,390.791849 137.339515,369.91511 C137.524124,368.333484 138.979666,367.196443 140.595545,367.378023 Z M122.920358,319.639817 C126.33078,321.880885 128.655465,325.301118 129.464243,329.271239 L129.985014,331.82476 L129.921667,331.845154 C136.289506,366.811497 127.314131,402.758172 105.108087,430.854917 C104.527652,431.589801 103.660683,431.974359 102.784875,431.974359 C102.149932,431.974359 101.511307,431.772612 100.972858,431.356008 C99.6904512,430.36548 99.4635808,428.534461 100.465346,427.267169 C122.153566,399.825191 130.603751,364.5311 123.650321,330.43438 L123.476485,329.586606 C122.096112,325.02144 117.378976,322.16202 112.569765,323.117588 C107.897561,324.049121 104.724322,328.26396 105.013803,332.842236 L105.270137,334.098603 C108.048563,347.723453 107.976377,361.469205 105.053579,374.952758 C104.712537,376.525949 103.145068,377.530314 101.555503,377.190913 C99.9637269,376.853697 98.9509127,375.30527 99.2919549,373.732079 C101.846456,361.944804 102.088795,349.942671 100.015288,338.0141 L99.9688831,338.021383 L99.4068632,335.26393 C97.7355356,327.070229 103.117815,319.058611 111.404476,317.406033 C115.42185,316.606327 119.509937,317.399478 122.920358,319.639817 Z M134.186827,297.984 C144.255494,303.614978 151.336715,313.340749 153.613936,324.668926 L154.076054,326.969927 L154.042683,326.985209 C160.557319,362.235217 154.22695,398.551312 136.122356,429.509318 C135.581888,430.434231 134.612672,430.948718 133.616615,430.948718 C133.117498,430.948718 132.612577,430.819187 132.150459,430.547753 C130.768457,429.734179 130.304887,427.950575 131.115952,426.564298 C148.892638,396.166624 154.85665,360.391214 147.908188,325.826704 L147.688374,324.735147 C145.525776,315.543511 139.622703,307.689396 131.361158,303.0692 C129.961745,302.28619 129.459,300.513501 130.239596,299.109032 C131.020192,297.705289 132.788139,297.201718 134.186827,297.984 Z M117.376859,332.762641 C124.300479,367.342406 114.991512,402.396799 91.8353046,428.937589 C91.2661315,429.590475 90.4717356,429.923077 89.6715832,429.923077 C88.9973542,429.923077 88.3195272,429.686125 87.7740997,429.202076 C86.5789081,428.145575 86.4616195,426.314451 87.5114597,425.112301 C109.470317,399.941774 118.299336,366.69894 111.734057,333.908271 C111.420329,332.338736 112.428434,330.810505 113.986285,330.494569 C115.55277,330.17501 117.06241,331.193106 117.376859,332.762641 Z M99.3193733,387.04708 C100.801798,387.637284 101.534366,389.342483 100.955947,390.855112 C96.067115,403.638225 88.825708,415.103484 79.4312555,424.933368 C78.8665223,425.523573 78.1181067,425.820513 77.3682505,425.820513 C76.6436056,425.820513 75.91752,425.542683 75.3571087,424.984818 C74.2175577,423.851449 74.1945074,421.99043 75.3059658,420.827661 C84.1572947,411.565931 90.9816347,400.762172 95.5873799,388.717734 C96.1672399,387.205105 97.8383892,386.45908 99.3193733,387.04708 Z M160.536429,392.073704 C162.087765,392.484698 163.007668,394.063171 162.592767,395.599179 C159.939146,405.415516 156.308946,415.038953 151.802441,424.202451 C151.298893,425.225256 150.264184,425.820513 149.187331,425.820513 C148.760078,425.820513 148.326285,425.727661 147.916471,425.529003 C146.472674,424.832977 145.873212,423.109827 146.576581,421.680348 C150.920323,412.847947 154.419731,403.571444 156.977438,394.109957 C157.392338,392.57395 158.988725,391.660551 160.536429,392.073704 Z M95.2358701,343.194903 C99.0489532,371.20974 88.902508,399.505666 68.0920604,418.886991 C67.5324017,419.407979 66.8195809,419.666667 66.1096636,419.666667 C65.3336907,419.666667 64.5598954,419.359566 63.9886225,418.751144 C62.8925335,417.584883 62.9542339,415.756006 64.1250892,414.665617 C83.5643368,396.561832 93.0429662,370.133803 89.4810398,343.970965 C89.2654514,342.389214 90.3789617,340.933194 91.9686537,340.718585 C93.550361,340.50542 95.0195558,341.612429 95.2358701,343.194903 Z M165.861419,295.735757 C171.034852,302.897364 174.60841,310.932339 176.494775,319.6318 L176.5056,319.640533 L176.716318,320.680568 C183.164888,352.934003 180.437813,386.161243 168.829522,416.769109 C168.389322,417.928504 167.294595,418.641026 166.132034,418.641026 C165.789977,418.641026 165.440703,418.579162 165.102255,418.448157 C163.612791,417.873918 162.867337,416.190504 163.436711,414.689041 C174.580266,385.306071 177.25394,353.422361 171.177736,322.441857 L171.053614,321.828317 C169.398895,313.554623 166.081519,305.929403 161.194577,299.164449 C160.255725,297.864588 160.54005,296.043618 161.828177,295.096743 C163.117746,294.149868 164.922566,294.436624 165.861419,295.735757 Z M117.979765,293.630918 C119.569218,293.754939 120.755539,295.151081 120.63222,296.748847 C120.508179,298.345888 119.135075,299.546933 117.53192,299.415659 C114.467678,299.17487 111.373148,299.366341 108.330541,299.983544 C90.7910218,303.54026 79.2335884,320.418707 81.9733045,338.026773 L82.2999934,339.476585 C87.6582694,366.204176 78.2405405,393.908704 57.7218775,411.779318 C57.1766747,412.254368 56.5038253,412.487179 55.8345817,412.487179 C55.0268738,412.487179 54.223493,412.148479 53.6530494,411.485584 C52.6102409,410.274386 52.7400511,408.442358 53.9451223,407.392894 C72.4351406,391.289034 81.1655967,366.540701 76.9806606,342.421174 L76.5775278,340.635564 C72.3139845,319.371419 86.0471807,298.583776 107.190375,294.295264 C110.75727,293.572897 114.386186,293.348789 117.979765,293.630918 Z M193.082859,343.399336 C194.378013,363.200919 192.347266,382.962771 187.0468,402.135893 C186.688741,403.428933 185.477484,404.282051 184.153117,404.282051 C183.897682,404.282051 183.637752,404.250267 183.379321,404.183809 C181.780042,403.772781 180.829464,402.189348 181.255689,400.647812 C186.38986,382.078591 188.356935,362.940144 187.101483,343.76341 C186.997361,342.170586 188.251315,340.798085 189.903029,340.697676 C191.559237,340.601601 192.978738,341.806512 193.082859,343.399336 Z M65.487923,373.70953 C66.9562156,374.286479 67.6832343,375.960281 67.1137363,377.447062 C63.2035163,387.646568 56.7244969,396.699396 48.3758991,403.627839 C47.8456031,404.067591 47.2062543,404.282051 46.5704694,404.282051 C45.7458021,404.282051 44.9275497,403.921007 44.3637539,403.224191 C43.3658851,401.990141 43.5440759,400.170477 44.7621886,399.159553 C52.3516934,392.860771 58.242683,384.62968 61.7979468,375.355893 C62.3695831,373.869834 64.0174921,373.131859 65.487923,373.70953 Z M78.9691298,283.306559 C79.975144,284.554424 79.7857936,286.387295 78.5463437,287.40014 C62.2679941,300.709736 54.512579,321.629492 58.0784366,342.324415 L58.4181109,343.888067 C62.2253541,362.891276 55.2490218,382.249564 40.2137357,394.409523 C39.6803747,394.841728 39.0407752,395.051282 38.4055119,395.051282 C37.559217,395.051282 36.7208719,394.679469 36.1499299,393.96422 C35.1504202,392.710534 35.3484431,390.878391 36.592952,389.872094 C49.5511658,379.391479 55.7635923,362.888366 53.0194574,346.501672 L52.7043553,345.048618 C48.0313039,321.718262 56.5368934,297.897491 74.9024333,282.88163 C76.1411605,281.869513 77.9616703,282.057966 78.9691298,283.306559 Z M41.8200575,332.487179 C43.3455351,332.487179 44.6128329,333.70726 44.6764839,335.266413 C44.8037858,338.42674 45.1470719,341.60518 45.6984751,344.737976 L46.028888,346.299303 C48.8245241,360.345443 43.8490213,374.832813 33.0433765,384.108033 C32.5055616,384.569548 31.849027,384.794872 31.1953531,384.794872 C30.3836245,384.794872 29.5769022,384.447105 29.0119105,383.77041 C27.9906344,382.549605 28.1386765,380.720933 29.3444689,379.685603 C38.2498822,372.041987 42.5137815,360.248359 40.6385812,348.65542 L40.3839774,347.454177 C39.6001408,343.517896 39.1202555,339.497571 38.9586249,335.503329 C38.894974,333.904328 40.1215066,332.555284 41.7013377,332.489353 C41.7399574,332.487904 41.7800075,332.487179 41.8200575,332.487179 Z M164.639668,322.493882 L164.999884,324.289372 L164.983281,324.3017 C168.506043,342.917942 168.750037,361.752457 165.70588,380.314312 C165.472714,381.735621 164.24841,382.74359 162.86024,382.74359 C162.704314,382.74359 162.546945,382.731262 162.38741,382.705156 C160.813718,382.444825 159.748227,380.952451 160.007381,379.371608 C163.035656,360.906198 162.686989,342.157252 158.971487,323.646157 L158.801845,322.799173 C153.477278,298.600669 129.727513,282.996005 105.449335,287.912573 C81.3942158,292.784906 65.5944863,316.017501 69.6009056,340.151466 L69.9380223,341.677197 C71.2236859,348.081063 71.5283181,354.591527 70.8432565,361.028024 C70.6736153,362.62192 69.2406888,363.773471 67.6655524,363.603784 C66.078866,363.433372 64.9318029,362.004086 65.1007222,360.411641 C65.6645084,355.116541 65.490536,349.764879 64.5845799,344.477756 L64.2214756,342.834549 C58.6384762,315.022585 76.6211628,287.833531 104.307325,282.225888 C131.986268,276.618245 159.056668,294.681918 164.639668,322.493882 Z M141.840433,249.549958 C171.174456,259.011092 193.369766,283.336511 200.290799,313.384151 L200.32756,313.38125 L200.845808,315.850413 C205.047298,336.81255 205.856746,358.118412 203.251808,379.175545 C203.070169,380.643265 201.828246,381.717949 200.393872,381.717949 C200.274942,381.717949 200.155291,381.710697 200.034919,381.695469 C198.454224,381.497501 197.332674,380.048635 197.52945,378.459089 C199.988067,358.587589 199.312686,338.487665 195.52421,318.683604 L195.169581,316.998338 C189.333338,287.879625 168.22498,264.151736 140.080983,255.07421 C138.563718,254.584728 137.729042,252.951673 138.215576,251.426666 C138.700668,249.900934 140.322448,249.059751 141.840433,249.549958 Z M126.327307,246.09562 C127.918438,246.310855 129.034191,247.775324 128.819763,249.367771 C128.604608,250.959491 127.139954,252.077839 125.548824,251.860423 C116.497771,250.637366 107.326057,250.941312 98.288815,252.764991 C76.7623994,257.106772 58.2154463,269.573668 46.0642699,287.869356 C34.1994824,305.733848 29.8178774,327.067546 33.6586871,348.110387 L33.9792392,349.625757 C35.7092027,358.206791 33.1818568,367.171758 27.2192978,373.606989 C26.64652,374.225062 25.8673095,374.538462 25.0866453,374.538462 C24.3793955,374.538462 23.6699651,374.281779 23.1109979,373.762598 C21.9327329,372.670427 21.8629528,370.830751 22.9547197,369.652776 C27.439541,364.812901 29.4558934,358.158073 28.4426291,351.687212 L28.2514609,350.783371 C23.6045463,327.726339 28.2093021,304.240292 41.221099,284.650287 C54.2314421,265.060281 74.0911323,251.711358 97.1388981,247.062722 C106.81361,245.110339 116.634424,244.785305 126.327307,246.09562 Z M29.8378166,286.651342 C31.2575139,287.376954 31.8193269,289.113524 31.0921473,290.530161 C21.6313789,308.964635 18.6102164,329.403627 22.316682,349.759519 C22.7430825,350.163194 23.0518042,350.690419 23.1783108,351.29797 C23.4683495,352.687821 23.7916458,354.082161 24.1396922,355.442839 C24.5496134,357.047376 23.5371853,358.669119 21.8789378,359.065578 C21.6291179,359.125421 21.379298,359.153846 21.1341186,359.153846 C19.7442536,359.153846 18.481232,358.24199 18.1331857,356.879068 C17.8617691,355.819171 17.6049427,354.739921 17.3657668,353.657894 C17.1977813,353.38185 17.0747036,353.07271 17.0071039,352.738258 C12.5104331,330.484229 15.6025713,308.065189 25.9498969,287.902969 C26.6770765,286.484891 28.4181193,285.925009 29.8378166,286.651342 Z M129.840232,310.359643 C135.931001,314.36748 140.081244,320.485085 141.526425,327.585321 L142.025417,330.03323 L141.97581,330.05057 C143.450171,338.0424 144.208143,346.154891 144.230758,354.204523 C144.235135,355.800577 142.932941,357.098229 141.3207,357.102564 L141.312675,357.102564 C139.704811,357.102564 138.398969,355.813583 138.394592,354.220419 C138.370518,345.722823 137.490716,337.149361 135.777801,328.737745 L135.553109,327.63084 C134.230488,322.512485 131.086253,318.119543 126.610643,315.173816 C121.817692,312.020002 116.074175,310.904426 110.432061,312.030117 C101.968161,313.720822 95.3594328,320.222086 93.5961811,328.592518 C93.2664377,330.155336 91.7293374,331.157476 90.1433593,330.831618 C88.5654059,330.505037 87.5535606,328.974733 87.8825745,327.411915 C90.1236622,316.774205 98.5219053,308.512151 109.277959,306.36409 C116.44696,304.932049 123.749463,306.351807 129.840232,310.359643 Z M172.383788,250.958572 C193.422847,265.646347 207.809223,287.54611 212.891114,312.623011 C212.949206,312.910105 212.962288,313.195809 212.935194,313.472885 L212.888869,313.253283 C214.425157,320.359883 215.129064,327.608586 214.98059,334.799156 C214.948279,336.36588 213.57739,337.615385 211.905706,337.615385 C211.885704,337.615385 211.864933,337.615385 211.8457,337.614667 C210.146321,337.584524 208.794664,336.274733 208.827744,334.689349 C208.966987,327.915759 208.303852,321.085471 206.856033,314.387956 C206.735334,313.828557 206.797635,313.274456 207.004507,312.779663 C202.043339,289.568938 188.595613,269.320793 169.053823,255.67887 C167.743863,254.764218 167.427241,252.965906 168.346677,251.66276 C169.264663,250.360336 171.072379,250.04464 172.383788,250.958572 Z M189.221714,315.346641 L189.254392,315.348822 L189.700991,317.502768 C190.342205,320.687147 190.906445,323.916611 191.37846,327.099535 C191.613742,328.688452 190.51794,330.16829 188.930517,330.403901 C188.786007,330.425717 188.64295,330.435897 188.501346,330.435897 C187.084574,330.435897 185.845716,329.397466 185.630767,327.95326 C185.239358,325.307732 184.781866,322.628752 184.267006,319.972316 L183.993238,318.651006 C176.365472,280.767154 139.37473,256.161121 101.552515,263.79883 C87.4545107,266.645791 74.7674683,273.629027 64.8616848,283.992983 C55.1773852,294.124964 48.7964659,306.754127 46.408069,320.514802 C46.133574,322.097174 44.6303872,323.161058 43.0494993,322.881815 C41.4686115,322.606936 40.4098451,321.10092 40.6843401,319.51782 C43.2709834,304.616179 50.1798335,290.940586 60.6651066,279.97015 C71.3951013,268.743016 85.136553,261.178754 100.403703,258.096182 C140.658612,249.96689 180.013786,275.546635 189.221714,315.346641 Z M155.473326,283.260372 C156.715155,284.271498 156.897542,286.091526 155.880972,287.325822 C155.305472,288.023499 154.471289,288.384615 153.630566,288.384615 C152.982403,288.384615 152.330606,288.170112 151.790712,287.730994 C138.286826,276.737163 120.735553,272.397265 103.642063,275.822094 C99.2371681,276.704663 94.9550759,278.086295 90.912775,279.927267 C89.4544076,280.592443 87.7279099,279.955434 87.0601273,278.504468 C86.3908915,277.054946 87.0317883,275.339642 88.4901557,274.675188 C92.9386486,272.648602 97.6501853,271.129024 102.492517,270.158343 C121.302332,266.388286 140.613529,271.163691 155.473326,283.260372 Z M159.014037,243.339862 C160.455652,244.053971 161.050328,245.810651 160.342969,247.265264 C159.635611,248.718411 157.894477,249.319612 156.450681,248.605503 C137.660248,239.30375 116.85388,236.598345 96.2801481,240.781825 C73.0921708,245.49612 52.6500235,258.696149 38.7187716,277.949245 C38.1495408,278.735938 37.2640707,279.153846 36.3676957,279.153846 C35.7722933,279.153846 35.1725291,278.96982 34.6549143,278.589304 C33.3579695,277.634714 33.0744446,275.800318 34.0202547,274.491606 C48.8115321,254.050771 70.514275,240.037655 95.1300547,235.03229 C116.973833,230.589268 139.062606,233.463302 159.014037,243.339862 Z"></path>
            </g>
        </g>
    </g>
</svg>